<?xml version="1.0" encoding="UTF-8"?>
<svg id="Layer_1" data-name="Layer 1" xmlns="http://www.w3.org/2000/svg" xmlns:xlink="http://www.w3.org/1999/xlink" viewBox="0 0 1424.51 317.46">
  <defs>
    <style>
      .cls-1 {
        fill: url(#linear-gradient-2);
      }

      .cls-2 {
        fill: #fff;
      }

      .cls-3 {
        fill: url(#linear-gradient-4);
      }

      .cls-4 {
        fill: url(#linear-gradient-3);
      }

      .cls-5 {
        fill: url(#linear-gradient);
      }
    </style>
    <linearGradient id="linear-gradient" x1="8683.61" y1="10455.89" x2="8683.61" y2="10173.83" gradientTransform="translate(-983.6666 13581.6121) rotate(-135)" gradientUnits="userSpaceOnUse">
      <stop offset="0" stop-color="#2558e9"/>
      <stop offset="1" stop-color="aqua"/>
    </linearGradient>
    <linearGradient id="linear-gradient-2" x1="8649.22" y1="10414.96" x2="8673.41" y2="10371.82" gradientTransform="translate(-983.6666 13581.6121) rotate(-135)" gradientUnits="userSpaceOnUse">
      <stop offset="0" stop-color="#000"/>
      <stop offset=".1" stop-color="#000" stop-opacity=".76"/>
      <stop offset="1" stop-color="#000" stop-opacity="0"/>
    </linearGradient>
    <linearGradient id="linear-gradient-3" x1="8683.61" y1="10455.53" x2="8683.61" y2="10176.24" xlink:href="#linear-gradient"/>
    <linearGradient id="linear-gradient-4" x1="8609.91" y1="10380.85" x2="8782.19" y2="10242.46" gradientTransform="translate(-983.6666 13581.6121) rotate(-135)" gradientUnits="userSpaceOnUse">
      <stop offset=".19" stop-color="#000"/>
      <stop offset=".27" stop-color="#000" stop-opacity=".76"/>
      <stop offset="1" stop-color="#000" stop-opacity="0"/>
    </linearGradient>
  </defs>
  <g>
    <path class="cls-5" d="M174.08,143.38c26.75,26.75,70.11,26.75,96.86,0,26.75-26.75,26.75-70.11,0-96.86-26.75-26.75-70.11-26.75-96.86,0-26.75,26.75-26.75,70.12,0,96.86ZM238.9,78.56c8.96,8.96,8.96,23.48,0,32.43-8.96,8.96-23.48,8.96-32.43,0-8.96-8.96-8.96-23.48,0-32.43,8.96-8.96,23.48-8.96,32.43,0Z"/>
    <path class="cls-1" d="M238.9,78.56c8.96,8.96,8.96,23.48,0,32.43-8.96,8.96-23.48,8.96-32.43,0l-32.39,32.39c26.75,26.75,70.11,26.75,96.86,0,26.75-26.75,26.75-70.11,0-96.86l-32.04,32.04Z"/>
    <path class="cls-4" d="M46.49,270.97c61.99,61.99,162.49,61.99,224.48,0,61.99-61.99,61.99-162.49,0-224.48-61.99-61.99-162.49-61.99-224.48,0-61.99,61.99-61.99,162.49,0,224.48ZM238.9,78.56c44.28,44.28,44.28,116.06,0,160.34-44.28,44.28-116.06,44.28-160.34,0-44.28-44.28-44.28-116.06,0-160.34,44.28-44.28,116.06-44.28,160.34,0Z"/>
    <path class="cls-3" d="M270.94,46.52c-26.71-26.71-70-26.75-96.75-.1-33.93-4.64-69.55,6.07-95.63,32.15-44.28,44.28-44.28,116.06,0,160.34l-32.07,32.07c-61.99-61.99-61.99-162.49,0-224.48,61.99-61.99,162.49-61.99,224.48,0l-.02.02Z"/>
  </g>
  <g>
    <path class="cls-2" d="M396.7,68.62h43.06v24.86c7.7-10.27,16.22-17.91,25.56-22.93,9.33-5.02,19.02-7.53,29.06-7.53,12.6,0,23.11,2.75,31.51,8.23,8.4,5.49,14.7,13.25,18.9,23.28,15.64-21.01,35.48-31.51,59.52-31.51,17.97,0,31.86,5.08,41.66,15.23,9.8,10.15,14.7,25.97,14.7,47.44v124.99h-44.11v-117.29c0-12.83-2.22-21.65-6.65-26.43-4.44-4.78-10.85-7.18-19.26-7.18-4.44,0-9.1.82-14,2.45-4.9,1.64-9.57,4.44-14,8.4-3.5,3.27-6.36,7.12-8.58,11.55-2.22,4.44-3.33,9.45-3.33,15.05v113.44h-44.11v-116.94c0-12.37-2.22-21.12-6.65-26.26-4.44-5.13-10.74-7.7-18.91-7.7-10.04,0-19.37,4.09-28.01,12.25-3.04,3.04-5.84,6.89-8.4,11.55-2.57,4.67-3.85,10.74-3.85,18.21v108.88h-44.11V68.62Z"/>
    <path class="cls-2" d="M698.18,0h44.46v39.56h-44.46V0ZM698.53,68.62h44.11v182.06h-44.11V68.62Z"/>
    <path class="cls-2" d="M781.61,68.62h43.06v24.86c7.7-10.27,16.22-17.91,25.56-22.93,9.33-5.02,19.02-7.53,29.06-7.53,12.6,0,23.11,2.75,31.51,8.23,8.4,5.49,14.7,13.25,18.9,23.28,15.64-21.01,35.48-31.51,59.52-31.51,17.97,0,31.86,5.08,41.66,15.23,9.8,10.15,14.7,25.97,14.7,47.44v124.99h-44.11v-117.29c0-12.83-2.22-21.65-6.65-26.43-4.44-4.78-10.85-7.18-19.26-7.18-4.44,0-9.1.82-14,2.45-4.9,1.64-9.57,4.44-14,8.4-3.5,3.27-6.36,7.12-8.58,11.55-2.22,4.44-3.33,9.45-3.33,15.05v113.44h-44.11v-116.94c0-12.37-2.22-21.12-6.65-26.26-4.44-5.13-10.74-7.7-18.91-7.7-10.04,0-19.37,4.09-28.01,12.25-3.04,3.04-5.84,6.89-8.4,11.55-2.57,4.67-3.85,10.74-3.85,18.21v108.88h-44.11V68.62Z"/>
    <path class="cls-2" d="M1072.62,200.26c0-11.9,2.51-21.82,7.53-29.76,5.02-7.93,11.84-14.18,20.48-18.73,8.63-4.55,18.5-7.82,29.58-9.8,11.08-1.98,22.7-3.21,34.84-3.68l28.01-1.05v-6.65c0-12.6-2.69-21.76-8.05-27.48-5.37-5.72-14-8.58-25.91-8.58s-20.31,2.05-25.91,6.13c-5.6,4.09-9.34,9.86-11.2,17.33l-39.56-3.5c3.27-17.73,11.43-30.75,24.51-39.04,13.07-8.28,30.92-12.43,53.57-12.43,27.07,0,46.33,6.13,57.77,18.38,11.43,12.25,17.15,29.94,17.15,53.04v116.24h-40.96v-22.41c-7,7.94-15.29,14.41-24.86,19.43-9.57,5.02-21.13,7.53-34.66,7.53-18.44,0-33.44-4.73-44.99-14.18-11.55-9.45-17.33-23.05-17.33-40.79ZM1115.33,198.16c0,7.47,2.33,13.48,7,18.03,4.67,4.55,12.25,6.83,22.76,6.83,14.47,0,26.08-3.73,34.84-11.2,8.75-7.47,13.13-17.97,13.13-31.51v-15.4l-25.91,1.05c-19.84.7-33.44,3.74-40.79,9.1-7.35,5.37-11.03,13.08-11.03,23.11Z"/>
    <path class="cls-2" d="M1381.1,200.61c0-6.07-1.75-11.2-5.25-15.4-3.5-4.2-10.74-7.12-21.71-8.75l-21.71-3.5c-21.94-3.5-38.34-9.33-49.19-17.51-10.85-8.17-16.28-20.66-16.28-37.46s7.06-30.75,21.18-40.44c14.12-9.68,32.5-14.53,55.14-14.53,17.27,0,31.21,2.16,41.84,6.48,10.62,4.32,18.79,10.33,24.51,18.03,5.72,7.7,9.63,16.69,11.73,26.96l-40.61,5.25c-2.57-8.4-6.42-14.76-11.55-19.08-5.14-4.32-13.65-6.48-25.56-6.48-13.08,0-22.18,2.22-27.31,6.65-5.14,4.44-7.7,9.57-7.7,15.41s1.93,10.91,5.78,14.53c3.85,3.62,11.49,6.36,22.93,8.23l24.16,4.2c22.87,4.2,39.09,10.56,48.67,19.08,9.57,8.52,14.35,21.18,14.35,37.99s-6.48,30.34-19.43,40.61c-12.95,10.27-32.27,15.4-57.94,15.4-24.04,0-43.76-4.73-59.17-14.18-15.41-9.45-23.81-24.91-25.21-46.39h42.01c1.87,10.27,6.24,17.51,13.13,21.71,6.88,4.2,16.39,6.3,28.53,6.3s21.24-2.1,26.61-6.3c5.37-4.2,8.05-9.8,8.05-16.81Z"/>
  </g>
</svg>